<svg width="238" height="150" viewBox="0 0 238 150" fill="none" xmlns="http://www.w3.org/2000/svg">
<g clip-path="url(#clip0_13_35)">
<path d="M43.4101 111.11C43.4101 111.11 43.8401 105.46 60.3601 99.81C76.8801 94.16 52.5401 128.92 52.5401 128.92L42.1501 118.6L43.4101 111.11Z" fill="#97B6B2"/>
<path d="M87.32 113.51C85.78 86.93 83.53 43.5 83.79 19.88C83.86 13.96 84.08 9.27999 84.52 6.42999C87.56 -13.56 54.1 23.38 54.1 23.38C54.1 23.38 -25.42 116.37 8.47003 109.85C42.36 103.33 52.36 96.81 54.53 102.03C56.26 106.18 49.47 126.53 47.05 137.54C59.75 128.48 73.21 120.43 87.32 113.51ZM46.45 77.65L57.31 57.66L55.83 75.53L46.45 77.65Z" fill="url(#paint0_linear_13_35)"/>
<path d="M36.45 79.88L55.31 75.84L58.25 48.54L36.45 79.88Z" fill="url(#paint1_linear_13_35)"/>
<path d="M120.15 12.51C106.85 12.51 94.4701 16.43 84.0901 23.18C84.0001 25.66 83.9101 28.56 83.8201 31.95C83.3801 47.96 86.7001 104.09 87.2601 113.49C97.5601 108.6 108.23 104.38 119.23 100.89C107.7 99.14 98.8601 89.18 98.8601 77.16C98.8601 63.9 109.61 53.15 122.87 53.15C136.13 53.15 146.88 63.9 146.88 77.16C146.88 84.62 143.47 91.29 138.13 95.7C153.47 92.11 169.33 89.91 185.6 89.24C186.14 85.83 186.43 82.34 186.43 78.78C186.42 42.18 156.75 12.51 120.15 12.51Z" fill="url(#paint2_linear_13_35)"/>
<path d="M123.37 112C142.75 112 158.46 96.2897 158.46 76.91C158.46 57.5303 142.75 41.82 123.37 41.82C103.99 41.82 88.28 57.5303 88.28 76.91C88.28 96.2897 103.99 112 123.37 112Z" fill="url(#paint3_radial_13_35)"/>
<path d="M160.32 36.2C167.141 36.2 172.67 30.6707 172.67 23.85C172.67 17.0293 167.141 11.5 160.32 11.5C153.499 11.5 147.97 17.0293 147.97 23.85C147.97 30.6707 153.499 36.2 160.32 36.2Z" fill="url(#paint4_radial_13_35)"/>
<path d="M233.12 132.9C228.08 128.32 211.57 121.77 211.57 121.77L228.19 114.43C228.19 114.43 225 112.27 214.04 112.98C203.08 113.69 203.24 112.7 184.45 123.23C184.29 123.32 184.14 123.4 183.98 123.49L184.55 149.83C190.71 149.79 194.9 149.45 205.48 141.1C224.76 125.89 238.4 138.83 238.4 138.83C238.4 138.83 238.16 137.49 233.12 132.9Z" fill="#BEC6C4"/>
<path d="M197.52 113.55L201.22 131.06L184.19 150.09L179.04 119.54L197.52 113.55Z" fill="#97B6B2"/>
<path d="M201.22 131.06C201.22 131.06 164.92 117 113.95 140.78C62.9801 164.56 42.5501 135.45 41.6801 132.84C40.8101 130.23 40.8101 126.76 41.6801 119.8C42.5501 112.85 43.4201 111.11 43.4201 111.11C43.4201 111.11 41.8201 135.63 86.7301 117.28C131.64 98.93 151.31 95.62 169.28 95.11C187.25 94.6 194.64 96.77 194.64 96.77L201.22 131.06Z" fill="#BEC6C4"/>
<path d="M98.43 136.6C98.75 136.88 98.96 137.27 99.06 137.77C99.18 138.39 99.09 138.97 98.79 139.54C98.49 140.1 98.01 140.45 97.35 140.57C96.21 140.79 94.5 141.03 92.22 141.3C91.77 141.36 90.93 141.48 89.71 141.64C88.49 141.8 87.53 141.95 86.85 142.08C86.54 142.14 86.11 142.33 85.56 142.66C85.45 142.71 85.23 142.81 84.9 142.97C84.57 143.13 84.29 143.23 84.06 143.28C83.68 143.35 83.33 143.24 83.02 142.95C82.71 142.66 82.48 142.16 82.35 141.48C82.2 140.72 82.27 140.1 82.54 139.62C82.82 139.14 83.3 138.66 83.99 138.18C85.46 137.16 86.81 135.96 88.03 134.58C89.25 133.2 90.17 131.79 90.79 130.35C91.41 128.9 91.6 127.6 91.38 126.44C91.2 125.52 90.86 124.88 90.36 124.52C89.86 124.16 89.16 124.07 88.26 124.24C87.22 124.44 86.44 124.89 85.92 125.58C85.4 126.27 85.24 127.12 85.44 128.14C85.71 129.54 85.15 130.37 83.75 130.64C83.09 130.77 82.54 130.68 82.1 130.37C81.66 130.06 81.37 129.55 81.23 128.84C81 127.66 81.1 126.51 81.52 125.39C81.94 124.28 82.71 123.3 83.83 122.46C84.94 121.62 86.39 121.03 88.17 120.68C90.3 120.27 92.07 120.48 93.49 121.31C94.9 122.14 95.79 123.51 96.16 125.4C96.51 127.2 96.08 129.23 94.89 131.5C93.69 133.77 91.76 135.95 89.09 138.03L97.2 136.32C97.7 136.23 98.11 136.32 98.43 136.6Z" fill="#424242"/>
<path d="M125.44 126.91C124.28 126.19 123.42 125.02 122.87 123.41C122.27 121.64 122.1 119.82 122.38 117.95C122.66 116.09 123.32 114.44 124.35 113.01C125.38 111.58 126.67 110.61 128.2 110.08C128.69 109.91 129.05 109.9 129.28 110.03C129.51 110.16 129.76 110.45 130.04 110.9C130.48 110.65 130.95 110.44 131.46 110.27C132.55 109.9 133.22 110.1 133.49 110.88C133.65 111.35 133.86 112.51 134.12 114.37C134.48 117.09 134.83 118.95 135.17 119.95C135.28 120.28 135.46 120.52 135.69 120.66C135.92 120.8 136.17 120.83 136.44 120.74C136.86 120.6 137.28 120.15 137.69 119.4C138.1 118.65 138.61 117.5 139.22 115.93C139.38 115.53 139.63 115.27 139.96 115.16C140.25 115.06 140.52 115.12 140.78 115.33C141.04 115.54 141.24 115.88 141.4 116.34C141.7 117.23 141.73 117.99 141.47 118.62C140.95 120.06 140.31 121.34 139.55 122.47C138.79 123.59 137.94 124.32 136.99 124.64C136.26 124.89 135.5 124.87 134.72 124.58C133.94 124.29 133.25 123.76 132.64 123.01C132.12 125.26 130.99 126.69 129.24 127.29C127.87 127.75 126.6 127.63 125.44 126.91ZM130.4 122.18C130.65 121.45 130.71 120.58 130.58 119.56L129.72 113.02C128.8 113.36 128.06 114 127.5 114.95C126.94 115.89 126.62 117 126.53 118.27C126.44 119.54 126.61 120.79 127.03 122.03C127.26 122.72 127.58 123.18 127.97 123.42C128.36 123.66 128.8 123.69 129.29 123.53C129.78 123.35 130.15 122.9 130.4 122.18Z" fill="#424242"/>
<path d="M141.84 121.68C141.26 120.86 140.73 119.45 140.24 117.44C139.51 114.48 139.24 111.57 139.43 108.7C139.47 107.99 139.69 107.42 140.08 107C140.47 106.58 141.09 106.26 141.93 106.06C142.38 105.95 142.72 105.93 142.93 106C143.14 106.07 143.28 106.26 143.36 106.58C143.45 106.94 143.48 107.8 143.45 109.16C143.45 110.13 143.46 110.97 143.49 111.68C143.52 112.4 143.61 113.27 143.77 114.29C144.04 112.15 144.49 110.35 145.12 108.89C145.75 107.43 146.45 106.33 147.22 105.59C147.99 104.85 148.75 104.38 149.5 104.2C150.98 103.84 151.9 104.39 152.26 105.87C152.48 106.76 152.62 108.42 152.69 110.86C152.75 112.94 152.85 114.31 153.01 114.94C153.23 115.85 153.68 116.22 154.34 116.06C154.79 115.95 155.27 115.54 155.75 114.83C156.24 114.12 156.85 113.01 157.59 111.5C157.78 111.11 158.05 110.88 158.39 110.8C158.69 110.73 158.95 110.81 159.19 111.04C159.43 111.27 159.61 111.63 159.72 112.1C159.94 113.01 159.9 113.77 159.59 114.37C158.91 115.82 158.1 117.06 157.17 118.11C156.23 119.16 155.05 119.86 153.62 120.21C152.46 120.5 151.5 120.38 150.75 119.85C149.99 119.33 149.46 118.43 149.14 117.15C148.98 116.51 148.86 115.34 148.78 113.62C148.72 112.11 148.63 111.09 148.49 110.54C148.4 110.18 148.23 110.03 147.98 110.09C147.68 110.16 147.36 110.65 147.02 111.54C146.67 112.43 146.38 113.57 146.13 114.96C145.88 116.35 145.76 117.78 145.76 119.25C145.77 120.38 145.66 121.17 145.42 121.63C145.18 122.09 144.71 122.4 144.01 122.57C143.14 122.81 142.41 122.5 141.84 121.68Z" fill="#424242"/>
<path d="M161.91 117.92C160.84 117.39 159.98 116.6 159.33 115.56C158.68 114.52 158.25 113.37 158.05 112.1C157.78 110.34 157.87 108.72 158.32 107.24C158.77 105.76 159.5 104.55 160.51 103.6C161.52 102.65 162.74 102.07 164.15 101.85C165.52 101.64 166.74 101.8 167.81 102.33C168.89 102.86 169.75 103.65 170.41 104.68C171.07 105.72 171.49 106.87 171.69 108.14C171.96 109.9 171.87 111.52 171.41 113C170.95 114.48 170.21 115.7 169.18 116.65C168.15 117.6 166.95 118.18 165.56 118.4C164.19 118.62 162.97 118.46 161.91 117.92ZM167.16 113.01C167.57 112.07 167.65 110.78 167.4 109.13C167.2 107.86 166.82 106.93 166.26 106.36C165.7 105.78 165.09 105.54 164.44 105.64C163.61 105.77 162.98 106.3 162.57 107.23C162.16 108.16 162.08 109.46 162.33 111.12C162.53 112.44 162.91 113.38 163.47 113.93C164.03 114.48 164.66 114.71 165.35 114.6C166.15 114.48 166.75 113.95 167.16 113.01Z" fill="#424242"/>
<path d="M176.52 117.23C175.84 116.71 175.47 116.1 175.43 115.4C175.39 114.79 175.57 114.25 175.99 113.78C176.4 113.31 177.04 113.04 177.91 112.98C178.21 112.96 178.57 112.96 178.98 112.99C179.39 113.02 179.71 113.04 179.92 113.05C179.85 112.44 179.68 111.88 179.4 111.36C179.12 110.84 178.77 110.34 178.36 109.86C177.95 109.38 177.57 108.97 177.22 108.62C176.59 110.05 175.95 111.24 175.3 112.2C174.65 113.16 173.93 114.08 173.15 114.95C172.76 115.4 172.33 115.64 171.86 115.67C171.49 115.7 171.17 115.58 170.92 115.33C170.67 115.08 170.53 114.75 170.5 114.36C170.47 113.89 170.6 113.45 170.9 113.03L171.32 112.44C172.5 110.76 173.38 109.39 173.96 108.32C174.33 107.61 174.7 106.78 175.07 105.81C175.44 104.85 175.92 103.53 176.51 101.87C176.88 100.81 177.77 100.23 179.17 100.14C179.82 100.1 180.28 100.12 180.55 100.22C180.81 100.32 180.96 100.5 180.97 100.75C180.98 100.89 180.95 101.12 180.88 101.43C180.81 101.74 180.7 102.05 180.56 102.37C180.2 103.24 180.04 103.97 180.08 104.55C180.1 104.9 180.25 105.28 180.53 105.68C180.8 106.08 181.22 106.58 181.78 107.18C182.59 108.11 183.22 108.91 183.65 109.57C184.08 110.23 184.33 110.97 184.38 111.79C184.45 112.77 184.28 113.72 183.89 114.62C183.49 115.53 182.91 116.28 182.13 116.87C181.35 117.46 180.43 117.8 179.38 117.87C178.15 117.97 177.2 117.75 176.52 117.23Z" fill="#424242"/>
<path d="M109.211 138.32C107.504 138.619 105.941 138.572 104.523 138.18C103.113 137.808 102.209 137.071 101.811 135.969C101.526 135.179 101.564 134.576 101.924 134.159C102.292 133.763 102.663 133.533 103.036 133.467C103.25 133.43 103.455 133.449 103.653 133.525C103.885 133.617 104.148 133.759 104.444 133.95C104.911 134.222 105.608 134.465 106.536 134.678C107.472 134.912 108.593 134.914 109.9 134.685C111.314 134.438 112.375 133.998 113.083 133.366C113.818 132.729 114.028 131.974 113.713 131.101C113.466 130.415 113.017 129.918 112.368 129.612C111.745 129.301 111.09 129.096 110.401 128.995C109.457 128.895 108.433 128.887 107.328 128.97C107.107 128.986 106.906 128.978 106.723 128.943C106.533 128.888 106.326 128.747 106.103 128.521C105.713 128.148 105.443 127.753 105.293 127.337C105.21 127.109 105.223 126.907 105.331 126.734C105.438 126.56 105.607 126.398 105.836 126.248C106.302 125.967 106.816 125.623 107.378 125.215C107.959 124.782 108.408 124.294 108.723 123.753C109.065 123.207 109.116 122.601 108.876 121.936C108.599 121.167 108.061 120.698 107.262 120.528C106.483 120.333 105.666 120.31 104.812 120.46C103.958 120.609 103.226 120.859 102.615 121.209C101.996 121.539 101.53 121.819 101.216 122.051C100.826 122.384 100.511 122.572 100.271 122.614C99.8973 122.68 99.5743 122.57 99.3017 122.287C99.0292 122.003 98.8442 121.726 98.7467 121.456C98.6193 121.102 98.6157 120.738 98.7358 120.364C98.8752 119.963 99.1954 119.554 99.6966 119.135C100.378 118.507 101.155 118.028 102.029 117.698C102.93 117.364 103.807 117.122 104.661 116.972C106.635 116.627 108.683 116.811 110.054 117.388C111.418 117.945 112.321 118.837 112.763 120.063C113.138 121.103 113.113 122.135 112.689 123.159C112.264 124.184 111.621 125.037 110.761 125.718C112.253 125.766 113.515 126.12 114.547 126.779C115.606 127.433 116.356 128.374 116.799 129.6C117.286 130.951 117.28 132.234 116.782 133.449C116.318 134.679 115.086 135.656 113.836 136.516C112.594 137.396 111.052 137.998 109.211 138.32Z" fill="#424242"/>
</g>
<defs>
<linearGradient id="paint0_linear_13_35" x1="13.1995" y1="158.29" x2="81.9468" y2="40.9135" gradientUnits="userSpaceOnUse">
<stop stop-color="#3062AB"/>
<stop offset="0.9944" stop-color="#42B5E9"/>
</linearGradient>
<linearGradient id="paint1_linear_13_35" x1="59.6135" y1="71.0247" x2="40.1205" y2="60.1895" gradientUnits="userSpaceOnUse">
<stop stop-color="#3062AB"/>
<stop offset="0.9944" stop-color="#42B5E9" stop-opacity="0.2"/>
</linearGradient>
<linearGradient id="paint2_linear_13_35" x1="164.424" y1="3.46231" x2="98.0652" y2="121.795" gradientUnits="userSpaceOnUse">
<stop offset="0.3113" stop-color="#FFDC34"/>
<stop offset="0.4212" stop-color="#FDD331"/>
<stop offset="0.6038" stop-color="#F9B928"/>
<stop offset="0.7939" stop-color="#F3981C"/>
</linearGradient>
<radialGradient id="paint3_radial_13_35" cx="0" cy="0" r="1" gradientUnits="userSpaceOnUse" gradientTransform="translate(123.367 76.9108) scale(35.0866 35.0866)">
<stop offset="0.4364" stop-color="#F3981C" stop-opacity="0.5"/>
<stop offset="0.5946" stop-color="#F49B1D" stop-opacity="0.3597"/>
<stop offset="0.7218" stop-color="#F5A521" stop-opacity="0.2468"/>
<stop offset="0.8382" stop-color="#F8B627" stop-opacity="0.1435"/>
<stop offset="0.9476" stop-color="#FCCE2F" stop-opacity="0.0465"/>
<stop offset="1" stop-color="#FFDC34" stop-opacity="0"/>
</radialGradient>
<radialGradient id="paint4_radial_13_35" cx="0" cy="0" r="1" gradientUnits="userSpaceOnUse" gradientTransform="translate(160.321 23.8453) scale(12.3513 12.3513)">
<stop stop-color="#F9B32A"/>
<stop offset="0.4965" stop-color="#F8B129"/>
<stop offset="0.7565" stop-color="#F7A925"/>
<stop offset="0.9614" stop-color="#F49B1E"/>
<stop offset="1" stop-color="#F3981C"/>
</radialGradient>
<clipPath id="clip0_13_35">
<rect width="238" height="150" fill="white"/>
</clipPath>
</defs>
</svg>
